<?xml version="1.0" encoding="UTF-8"?>
<svg version="1.1" viewBox="0 0 2048 725" width="480" height="170" xmlns="http://www.w3.org/2000/svg">
<path transform="translate(335)" d="m0 0h53l33 4 29 6 25 7 27 10 26 12 25 14 15 10 19 14 14 12 8 7 13 12 11 12 12 14 15 20 11 17 12 21 12 24 10 26 8 26 6 27 4 28 2 24v31l-2 25-4 28-7 30-11 33-10 23-12 23-11 18-8 12-12 16-11 13-7 8-12 13-16 15-11 9-17 13-18 12-17 10-21 11-24 10-19 7-29 8-31 6-27 3-15 1h-15l-30-2-28-4-28-6-27-8-26-10-20-9-15-8-23-15-17-12-16-13-13-12-25-25-9-11-14-18-13-20-12-21-13-27-11-29-9-33-6-34-3-32v-25l3-34 5-30 7-28 8-24 11-26 10-20 10-17 12-18 12-16 14-17 14-15 10-10 8-7 13-11 19-14 17-11 21-12 27-13 29-11 25-7 36-7zm5 14-28 3-27 5-23 6-26 9-27 12-22 12-19 12-18 13-13 11-10 9-8 7-12 12-9 11-12 14-14 20-12 20-12 23-10 23-12 36-6 27-4 29-1 13v43l3 29 4 23 6 24 11 32 11 24 12 23 18 27 11 14 11 13 12 13 12 12 8 7 16 13 14 10 1-2v-16l4-11 7-11 9-7 9-3 5-1h9l12 3 22 11 5 2 8-10 8-15 6-19 3-20v-30l-2-18-5-21-6-15-8-15-9-12-9-10-9-9-17-13-16-10-19-10-30-12-2-2 1-6 1-3 12 2 21 8 16 8 3 1-3-9-7-17-6-21-3-15-1-8-1-20v-18l1-27 3-26 5-19 5-9 5-5 4-2h12l12 6 12 11 8 9 9 13 9 14 1 1h87l7-10 8-12 11-14 10-10 12-7 3-1h12l8 5 3-1 7-8 9-6 11-4 7-1h9l14 3 13 7 10 9 3 3 21-4h30l16 3 16 6 12 7 5 3 8-6 8-4 13-3h16l14 3 9 3-8-16-12-19-10-14-11-14-12-13-7-8-11-11-8-7-17-14-20-14-18-11-24-13-26-11-30-10-31-7-31-4-12-1zm113 170-10 3-8 6-8 9-1 2v7l3 18 2 31h2l13-19 9-11 11-13 10-9 13-9-1-3-12-8-13-4zm-254 15-5 8-4 16-3 28v59l4 24 6 20 7 16 9 14 11 13 12 10 16 9 18 6 18 3h32l20-4 16-6 14-8 10-8 9-9 7-10 10-19 6-18 5-26 1-9v-54l-2-26-4-18-5-10-1-1h-7l-9 6-11 11-11 15-14 22-5 1h-95l-5-4-11-18-12-16-7-8-11-8-2-1zm328 2-18 4-16 7-11 8-9 8-9 11-11 14-8 13-8 16-4 12-3 25-5 26-7 21-11 21-13 18-6 15-3 15v15l4 16 5 10 9 10 10 8 16 8h3l-2-6-5-13-1-4-1-21-9-6-5-5-4-6-1-10 3-7 1-3 4-2 12-5 11-1 14 3 12 6 5 5 5 8 1 9-5 8-8 6-14 3-8 1v16l4 11 6 8 9 8 10 4h20l22-4 18-6 15-9 10-9 9-13 5-12 1-4v-15l-5-15-9-16-12-15-1-6 5-4 6 2 9 10 10 15 7 16 3 12v18l-3 11 5-2 11-9 12-11 8-7 16-16 6-7-1-5-8-16-4-14-3-16-2-23v-23l9-1 2 1 1 3 2 34 3 20 4 15 7 13 5 4 7 3h11l12-4 9-7 5-5 6-8 6-12 3-9 2-12v-19l-4-31-6-27-8-27-7-16-8-10-10-7-10-4-9-2h-17l-10 3-9 6-7 8-5-1-10-9-16-8-13-4-12-2zm181 194-13 14-13 8-9 3-6 1h-14l-8-1-12 14-18 18-8 7-13 11-10 8-14 11-11 9-13 11-12 11-9 9-7 10-5 10-1 4v9l4 8 8 6 9 3 7 1h15l18-3 17-5 18-8 19-10 17-12 13-11 10-9 7-8 7-10 8-19 8-24 6-24 5-28 1-14zm-335 27-21 9-19 5-16 2h-30l-19-3-12-3 2 5 7 11 8 16 5 14 5 21 2 16v38l-3 19-5 16-7 16-9 13 1 3 18 7 21 6 21 4 9 1h41l20-3 25-7 22-9 7-3 5 1 2 4v6l-5 2-21 9-18 6-23 5-18 2h-36l-23-3-28-7-20-7-25-11-22-11-6-2h-10l-8 4-7 7-4 8-1 6v8l3 10 6 8 7 6 19 10 26 11 30 10 25 6 27 4 23 2h39l31-3 31-6 28-8 26-10 25-12 20-11 15-10 14-10 11-9 14-12 26-26 9-11 10-12 11-16-2-1-13 9-17 10-17 8-20 7-16 4-19 2h-9l-14-2-12-5-8-6-6-10-2-7v-12l3-10 6-11 8-10v-2l-21 4-10 1h-20l-20-3-19-5-16-7-11-7-11-11-7-11-5-11-4-17v-15l2-14z" fill="#3A3C3E"/>
<path transform="translate(2033,295)" d="m0 0 7 1 6 5 1 2 1 13v29l-1 74-3 17-5 10-9 11-11 7-10 4-20 3-16-1-14-3-10-6-3-4v-7l4-7 3-2 9 1 11 4 5 1h20l9-3 6-4 5-6 3-7 3-18-15 11-16 5h-19l-13-5-10-9-6-10-4-16v-81l4-6 3-2h10l6 5 1 2 1 73 2 12 6 9 8 4 4 1h13l11-4 5-4 6-10 1-5 1-75 4-6z" fill="#3A3C3E"/>
<path transform="translate(1158,295)" d="m0 0h7l6 5 8 20 17 49 4 10 1 1 9-25 12-31 4-6 4-2h8l5 5 7 16 13 34 3 8 4-10 20-56 5-13 6-5h7l7 4 2 4v8l-21 60-15 41-5 8-2 2h-11l-5-5-4-8-14-37-7-18-1-1-14 41-8 21-4 6-2 1h-11l-6-7-11-30-22-61-5-15 1-7 4-5z" fill="#3A3C3E"/>
<path transform="translate(1608,295)" d="m0 0h6l6 4 6 15 20 57 3 9 4-9 17-44 5-9 4-2h8l5 4 8 19 15 39 2 1 3-12 15-42 8-22 4-6 4-2 8 1 6 4 1 1v10l-7 20-16 46-12 33-5 9-4 3h-10l-5-5-10-24-15-41-10 28-11 31-5 9-3 2-6 1-7-3-4-6-9-24-14-39-13-36-1-4v-9l5-5z" fill="#3A3C3E"/>
<path transform="translate(1514,253)" d="m0 0 6 1 5 3 8 16 18 44 17 41 19 46 2 6-1 7-5 5-4 2-6-1-5-4-10-22-6-14v-2l-74 1-11 28-5 9-4 4-6 1-6-3-4-5 1-7 16-39 15-36 16-39 12-29 5-9 4-3zm1 41-5 10-15 36-7 16v2h54l-2-6-18-43-6-15z" fill="#3A3C3E"/>
<path transform="translate(878,255)" d="m0 0h67l11 3 11 7 7 7 7 12 3 9 1 6v15l-3 12-6 12-9 10-9 6-11 4-8 1h-46v55l-4 6-3 2h-9l-6-5-1-4v-150l3-5zm15 22v59h47l8-3 6-5 6-12v-18l-4-10-6-7-6-3-5-1z" fill="#3A3C3E"/>
<path transform="translate(1056,293)" d="m0 0h12l15 4 12 7 6 5 3-9 5-5 6-1 7 3 3 4 1 3v109l-3 6-3 3h-11l-5-4-3-10-11 9-10 5-10 3h-17l-13-4-9-5-10-9-7-9-7-15-3-14v-20l3-14 8-16 7-9 9-8 12-6zm3 22-11 4-9 7-7 10-4 11-1 5v15l4 13 6 10 9 8 8 4 5 1h12l10-3 11-8 7-10 3-9 1-5v-18l-4-13-6-9-9-8-10-4-4-1z" fill="#3A3C3E"/>
<path transform="translate(1837,293)" d="m0 0h12l12 3 16 8 7 6v-8l6-7 6-1 7 3 3 3 1 2v113l-6 7h-10l-5-3-2-4-1-7-13 10-11 5-8 2h-16l-14-4-10-6-9-8-7-10-5-10-4-14-1-7v-13l3-16 5-12 6-10 7-8 10-7 12-5zm3 22-12 5-8 7-6 8-4 10-2 11 1 14 5 13 4 6 5 6 10 6 7 2h13l11-4 9-7 7-9 4-12 1-14-2-13-4-10-7-9-9-6-8-3-4-1z" fill="#3A3C3E"/>
<path transform="translate(1376,293)" d="m0 0h12l16 4 13 7 8 8 1 2v7l-3 5-4 2h-7l-10-8-8-4-8-2h-11l-9 3-4 4-2 9 3 8 10 6 29 9 14 7 8 8 4 8 2 9-1 12-5 10-5 6-11 7-13 4-4 1h-18l-19-5-12-7-8-8-3-6 1-7 5-5 3-2 6 1 13 11 12 6 10 2 13-1 10-5 3-5v-9l-4-6-12-6-29-9-12-6-8-8-5-11-1-4v-9l3-10 6-8 9-8 12-5z" fill="#3A3C3E"/>
<path transform="translate(293,342)" d="m0 0h12l8 4 3 4-1 5-8 7 3 7 5 3h8l6-4 5-5h2l-1 6-6 9-5 4-8 2-9-1-8-4-8 4-11 1-8-3-7-8-1-2v-8l5 4 4 4 3 1h7l6-3 2-4-1-4-7-7-1-3 6-7z" fill="#3A3C3E"/>
<path transform="translate(517,322)" d="m0 0 6 1 5 8 6 8 5 4 7 2h10l12-4 7-6 3-6 1-1h6l4 3 1 4-3 8-6 7-10 6-13 4h-15l-11-4-8-6-7-9-5-10 1-6z" fill="#3A3C3E"/>
<path transform="translate(346,290)" d="m0 0h12l9 3 10 9 5 10 1 4v7l-6 5-5-1-3-5-4-11-1-3-5-2-2-1h-9l-8 4-8 18-5 1-5-3-1-2v-9l4-10 6-7 8-5z" fill="#3A3C3E"/>
<path transform="translate(241,290)" d="m0 0h11l9 3 6 4 6 7 4 9v11l-3 3-5 1-5-5-4-12-5-5-3-1h-10l-8 5-3 6-3 10-3 2-6-1-3-4v-10l6-12 8-7z" fill="#3A3C3E"/>
<path transform="translate(471,483)" d="m0 0 5 1 4 4-1 6-4 3-5-1-4-4 1-5z" fill="#3A3C3E"/>
<path transform="translate(502,478)" d="m0 0h8l2 2v8l-3 2h-6l-4-5 2-6z" fill="#3A3C3E"/>
<path transform="translate(484,463)" d="m0 0 5 1 1 1v7l-2 2-6-1-2-2 1-6z" fill="#3A3C3E"/>
</svg>
